<svg xmlns="http://www.w3.org/2000/svg" width="45.159" height="44.486" viewBox="0 0 45.159 44.486"><defs><style>.a{fill:#efefef;}</style></defs><g transform="translate(-1244 -3528.183)"><path class="a" d="M22.243,0h.673a22.243,22.243,0,0,1,0,44.486h-.673A22.243,22.243,0,0,1,22.243,0Z" transform="translate(1244 3528.183)"/><g transform="translate(1257.77 3539.462)"><rect width="3.939" height="12.724" transform="translate(0.378 6.362)"/><path d="M328.2,195.552a2.348,2.348,0,1,0-2.329-2.348A2.339,2.339,0,0,0,328.2,195.552Z" transform="translate(-325.874 -190.857)"/><path d="M336.487,203.263c0-1.788.823-2.854,2.4-2.854,1.449,0,2.145,1.023,2.145,2.854v6.679h3.92v-8.056c0-3.408-1.932-5.056-4.63-5.056a4.435,4.435,0,0,0-3.834,2.1v-1.713h-3.778v12.723h3.778Z" transform="translate(-325.874 -190.857)"/></g></g></svg>