<svg xmlns="http://www.w3.org/2000/svg" width="309.833" height="61.398" viewBox="0 0 309.833 61.398"><g transform="translate(89.124 28.465)"><path d="M2313.81,38.97h4.993V49.185h10.754V38.97h4.993V65.847h-4.993V53.793H2318.8V65.854h-4.993Z" transform="translate(-2313.81 -38.66)"/><path d="M2357.51,48.74c6.219,0,9.831,4.38,9.831,9.986s-3.612,9.986-9.831,9.986-9.831-4.38-9.831-9.986S2351.292,48.74,2357.51,48.74Zm0,15.9c3.072,0,4.838-2.725,4.838-5.916s-1.765-5.916-4.838-5.916-4.838,2.725-4.838,5.916S2354.438,64.642,2357.51,64.642Z" transform="translate(-2322.665 -41.214)"/><path d="M2390.66,51.9l-2.844,2.615a4.177,4.177,0,0,0-3.228-1.691,1.611,1.611,0,0,0-1.765,1.61c0,.842.694,1.462,1.847,1.883,2.651.96,6.987,1.8,6.987,5.953,0,3.493-2.688,6.448-6.876,6.448a8.415,8.415,0,0,1-7.681-5.222l3.8-2.038c.694,1.883,1.994,3.191,3.877,3.191,1.462,0,2.378-.65,2.378-2.075,0-1.61-2.5-1.957-4.838-2.954-2.113-.886-3.915-2.231-3.915-5.222s2.423-5.643,6.182-5.643A7.1,7.1,0,0,1,2390.66,51.9Z" transform="translate(-2330.355 -41.216)"/><path d="M2412.17,65.353a7.277,7.277,0,0,1-3.146.694c-4.38,0-7.105-2.341-7.105-7.142V50.456h-3v-4.07h3V41.549l4.764-3v7.836h5.1v4.07h-5.1v8.368c0,2.378.923,3.146,2.533,3.146a3.735,3.735,0,0,0,1.846-.458Z" transform="translate(-2336.06 -38.55)"/><path d="M2432.57,51.9l-2.844,2.615a4.176,4.176,0,0,0-3.228-1.691,1.611,1.611,0,0,0-1.765,1.61c0,.842.694,1.462,1.846,1.883,2.652.96,6.987,1.8,6.987,5.953,0,3.493-2.688,6.448-6.876,6.448a8.415,8.415,0,0,1-7.681-5.222l3.8-2.038c.694,1.883,1.994,3.191,3.878,3.191,1.462,0,2.378-.65,2.378-2.075,0-1.61-2.5-1.957-4.838-2.954-2.112-.886-3.915-2.231-3.915-5.222s2.423-5.643,6.182-5.643A7.1,7.1,0,0,1,2432.57,51.9Z" transform="translate(-2341.312 -41.216)"/><path d="M2493.39,62.859a7.425,7.425,0,0,1-6.529,3.191c-6.492,0-12.4-4.572-12.4-13.745s6.145-13.745,12.785-13.745a11.042,11.042,0,0,1,11.175,8.486l-4.572,1.189c-1.27-3.072-3.339-5.067-6.6-5.067-4.3,0-7.718,2.88-7.718,9.136,0,6.448,3.42,9.136,7.6,9.136a5.683,5.683,0,0,0,6.027-5.111h-4.993V52.187h9.83V65.74H2493.8Z" transform="translate(-2355.808 -38.553)"/><path d="M2513.25,68.4V49.05h4.764V52.2a6.74,6.74,0,0,1,5.724-3.457,7.932,7.932,0,0,1,2.341.384l-.886,4.417A3.669,3.669,0,0,0,2523.2,53c-2.762,0-5.185,2.267-5.185,8.523V68.4h-4.764Z" transform="translate(-2365.948 -41.214)"/><path d="M2550.307,60.259h-13.324a4.445,4.445,0,0,0,4.572,4.38c2.186,0,3.53-1,4.683-3l3.841,1.418c-1.5,3.42-4.107,5.643-8.8,5.643-6.64,0-9.292-5.414-9.292-9.986s2.652-9.986,9.292-9.986c6.448,0,9.025,5.34,9.025,9.565ZM2537.094,56.5h8.331c-.421-1.92-1.61-3.686-4.151-3.686A4.278,4.278,0,0,0,2537.094,56.5Z" transform="translate(-2370.847 -41.211)"/><path d="M2578.457,60.259h-13.324a4.445,4.445,0,0,0,4.572,4.38c2.187,0,3.53-1,4.683-3l3.841,1.418c-1.5,3.42-4.106,5.643-8.8,5.643-6.64,0-9.291-5.414-9.291-9.986s2.651-9.986,9.291-9.986c6.448,0,9.025,5.34,9.025,9.565ZM2565.244,56.5h8.331c-.421-1.92-1.61-3.686-4.144-3.686A4.273,4.273,0,0,0,2565.244,56.5Z" transform="translate(-2378.207 -41.211)"/><path d="M2594.784,49.05V52.16a7.311,7.311,0,0,1,5.99-3.42c3.457,0,5.953,1.957,5.953,5.835V68.4h-4.764V56c0-2.3-1.152-3.191-2.762-3.191-2.3,0-4.417,2.762-4.417,7.873V68.4h-4.764V49.05Z" transform="translate(-2386.018 -41.214)"/><circle cx="5.163" cy="5.163" r="5.163" transform="translate(101.104 16.847)"/></g><path d="M2271.769,41.474a19.372,19.372,0,0,0-4.372-12.445,19.976,19.976,0,0,0-4.269-3.988q.022-.4.022-.8a15.609,15.609,0,0,0-15.613-15.614,16.082,16.082,0,0,0-2.814.244A24.658,24.658,0,0,0,2239.59,4.2a24.2,24.2,0,0,0-30.732,2.91,23.677,23.677,0,0,0-6.979,14.631,21.835,21.835,0,0,0-5.222,5.65,22.04,22.04,0,0,0,2.962,27.549,21.894,21.894,0,0,0,7.644,5.022V38.8h4.727V61.186h0v-12.7h4.727V61.408h0V32.943h4.727V61.408h0V43.756h4.727V61.408h0V21.229h4.727V61.408h0V34.3h4.727V61.408h0V46.924h4.727V61.408h0V53.365h4.727v8.043h0V32.943h4.727V61.408h0V40.949h4.727V61.231a19.964,19.964,0,0,0,17.239-19.757Zm-59.781-7.423h-4.749V29.3h4.749Zm18.9-17.571h-4.749V11.731h4.749ZM2249.8,28.194h-4.749V23.445h4.749Z" transform="translate(-2193.14 -0.01)"/></svg>