<svg xmlns="http://www.w3.org/2000/svg" width="234" height="59.397" viewBox="0 0 234 59.397"><g transform="translate(0 -31.84)"><path d="M60.878,53.431V31.84H53.96v21.6a8.837,8.837,0,0,1,6.918,0" transform="translate(-28.338 0)"/><path d="M53.96,111.45v21.6h6.918v-21.6a8.753,8.753,0,0,1-3.457.708,8.91,8.91,0,0,1-3.462-.708" transform="translate(-28.338 -41.808)"/><path d="M79.37,94.176H99.84V90.42H79.37a9.076,9.076,0,0,1,.2,1.876,8.452,8.452,0,0,1-.2,1.88" transform="translate(-41.682 -30.764)"/><path d="M20.47,90.43H0v3.756H20.47a8.742,8.742,0,0,1-.2-1.88,9.339,9.339,0,0,1,.2-1.876" transform="translate(0 -30.769)"/><path d="M31.147,63.543l-13.6-13.6-.869-.874-.874.874-.912.912-.874.874.874.874,13.8,13.8a8.836,8.836,0,0,1,2.455-2.858" transform="translate(-7.363 -9.049)"/><path d="M69.48,105.16l13.865,13.865,1.311,1.311,1.311-1.311,2.274-2.274,1.311-1.311-1.311-1.311L73.986,99.88a8.823,8.823,0,0,1-4.506,5.28" transform="translate(-36.489 -35.732)"/><path d="M73.991,66.251,88.246,52l1.311-1.311-1.311-1.311L85.971,47.1,84.666,45.79,83.355,47.1,69.49,60.966a8.838,8.838,0,0,1,4.5,5.285" transform="translate(-36.494 -7.326)"/><path d="M28.682,103.2,14.884,117l-.874.874.874.874.912.912.874.869.874-.874,13.6-13.6a8.942,8.942,0,0,1-2.46-2.854" transform="translate(-7.358 -37.476)"/><path d="M186.125,92.5a2.313,2.313,0,0,1-3.348-.29l-9.217-11.059-1.505,1.016v8.49a2.434,2.434,0,0,1-2.426,2.426,2.394,2.394,0,0,1-2.379-2.426V59.224a2.379,2.379,0,0,1,2.379-2.374,2.423,2.423,0,0,1,2.426,2.374v17.27l11.011-7.227a2.393,2.393,0,1,1,3.053,3.685l-8.49,5.579,8.827,10.622a2.379,2.379,0,0,1-.332,3.348" transform="translate(-87.834 -13.134)"/><path d="M243.189,94.255a2.394,2.394,0,0,1-2.426,2.379H224.03a7.392,7.392,0,0,0,6.985,5,9.5,9.5,0,0,0,5.432-1.6,2.319,2.319,0,0,1,3.2,1.116,2.522,2.522,0,0,1-1.163,3.2,11.851,11.851,0,0,1-7.469,2.085,12.175,12.175,0,0,1,0-24.349,11.944,11.944,0,0,1,12.175,12.175m-19.16-2.426h14.017a7.092,7.092,0,0,0-7.032-4.948,7.418,7.418,0,0,0-6.985,4.948" transform="translate(-114.927 -26.384)"/><path d="M298.2,84.554a2.434,2.434,0,0,1-2.426,2.426,7.372,7.372,0,0,0-7.374,7.374v9.753a2.4,2.4,0,1,1-4.805,0V94.355A12.181,12.181,0,0,1,295.765,82.18a2.394,2.394,0,0,1,2.431,2.374" transform="translate(-148.932 -26.437)"/><path d="M347.469,84.549V96.771a9.825,9.825,0,0,1-19.649,0V84.549a2.4,2.4,0,0,1,4.805,0V96.676a5.019,5.019,0,1,0,10.038,0V84.549a2.4,2.4,0,0,1,4.805,0" transform="translate(-172.16 -26.432)"/><path d="M406.892,94.56v9.506a2.347,2.347,0,0,1-2.426,2.426,2.557,2.557,0,0,1-2.327-2.426,10.573,10.573,0,0,1-7.18,2.426A11.911,11.911,0,0,1,382.69,94.56a12.192,12.192,0,0,1,12.27-12.27,11.906,11.906,0,0,1,11.933,12.27m-4.753,0a7.332,7.332,0,0,0-7.179-7.517,7.618,7.618,0,0,0-7.517,7.517,7.332,7.332,0,0,0,7.517,7.179,7.047,7.047,0,0,0,7.179-7.179" transform="translate(-200.976 -26.495)"/><path d="M470.085,92.5a2.313,2.313,0,0,1-3.348-.29L457.52,81.152l-1.505,1.016v8.49a2.434,2.434,0,0,1-2.426,2.426,2.394,2.394,0,0,1-2.379-2.426V59.224a2.379,2.379,0,0,1,2.379-2.374,2.423,2.423,0,0,1,2.426,2.374v17.27l11.016-7.227a2.393,2.393,0,1,1,3.053,3.685l-8.49,5.579,8.827,10.622a2.376,2.376,0,0,1-.337,3.348" transform="translate(-236.96 -13.134)"/></g></svg>