<svg xmlns="http://www.w3.org/2000/svg" width="333" height="58.641" viewBox="0 0 333 58.641"><g transform="translate(-1449.906 -834.162)"><path d="M1468.614,887.527V884.5h-.093a7.238,7.238,0,0,1-3.188,2.723,10.394,10.394,0,0,1-4.4.954,10.286,10.286,0,0,1-4.654-1.023,10.682,10.682,0,0,1-3.467-2.723,11.929,11.929,0,0,1-2.163-3.932,14.608,14.608,0,0,1-.745-4.654,14.031,14.031,0,0,1,.767-4.63,12.1,12.1,0,0,1,2.188-3.886,10.2,10.2,0,0,1,7.981-3.63,8.841,8.841,0,0,1,4.328.977,9.626,9.626,0,0,1,2.745,2.14h.093V852.345h7.632v35.182Zm-.279-11.634a6.363,6.363,0,0,0-1.513-4.1,5.567,5.567,0,0,0-1.745-1.349,5.123,5.123,0,0,0-2.327-.513,5.227,5.227,0,0,0-2.374.513,5.351,5.351,0,0,0-2.769,3.211,7.012,7.012,0,0,0-.348,2.187,7.24,7.24,0,0,0,.348,2.211,5.693,5.693,0,0,0,1.048,1.931,5.143,5.143,0,0,0,4.095,1.862,5.132,5.132,0,0,0,2.327-.512,5.568,5.568,0,0,0,1.745-1.35,6.363,6.363,0,0,0,1.513-4.095" transform="translate(0 -2.92)"/><rect width="7.632" height="27.548" transform="translate(1498.536 857.058)"/><rect width="7.632" height="35.18" transform="translate(1513.801 849.426)"/><rect width="7.632" height="50.444" transform="translate(1483.273 834.162)"/><path d="M1560.262,888.836v-27.5h8.6c6.483,0,12.809,4.126,12.809,13.752s-6.326,13.752-12.809,13.752Zm6.993-4.715c4.4,0,9.233-1.728,9.233-9.037s-4.833-9.036-9.233-9.036h-1.886v18.073Z" transform="translate(-17.72 -4.363)"/><path d="M1608.023,881.92H1594.39a4.544,4.544,0,0,0,4.675,4.479c2.24,0,3.615-1.022,4.794-3.065l3.929,1.454c-1.533,3.5-4.2,5.775-9,5.775-6.8,0-9.509-5.539-9.509-10.216s2.711-10.214,9.509-10.214c6.6,0,9.233,5.461,9.233,9.783Zm-13.516-3.851h8.526c-.432-1.965-1.65-3.771-4.243-3.771a4.375,4.375,0,0,0-4.283,3.771" transform="translate(-22.38 -5.776)"/><path d="M1628.189,873.354l-2.908,2.672a4.27,4.27,0,0,0-3.3-1.728,1.65,1.65,0,0,0-1.807,1.649c0,.865.708,1.493,1.886,1.926,2.711.981,7.151,1.846,7.151,6.091,0,3.574-2.751,6.6-7.033,6.6a8.608,8.608,0,0,1-7.859-5.343l3.89-2.083c.707,1.925,2.043,3.261,3.969,3.261,1.492,0,2.435-.668,2.435-2.121,0-1.65-2.554-2-4.951-3.026-2.161-.9-4.007-2.278-4.007-5.343s2.475-5.775,6.326-5.775a7.291,7.291,0,0,1,6.208,3.221" transform="translate(-26.4 -5.776)"/><path d="M1641.33,860.958v15.795l6.444-7.779h6.011l-7.936,9.114,8.447,10.687h-5.972l-6.994-9.351v9.351h-4.871V860.958Z" transform="translate(-29.955 -4.303)"/><path d="M1673.668,861.333h5.737l6.482,17.17,6.483-17.17h5.737v27.5H1693V871.862l-5.264,14.458h-3.694l-5.264-14.458v16.974h-5.108Z" transform="translate(-35.93 -4.363)"/><path d="M1708.667,875.633c.629-3.261,3.5-5.5,7.545-5.5,4.714,0,8.329,1.964,8.329,8.289v11.827h-4.007l-.51-2.515a7.382,7.382,0,0,1-6.09,2.829,5.627,5.627,0,0,1-6.012-6.011c0-3.929,3.458-6.483,8.448-6.483h3.3V877.2c0-2.2-1.651-2.908-3.458-2.908a3.237,3.237,0,0,0-3.418,2.279Zm6.4,10.766c2.24,0,4.6-1.533,4.6-4.086v-.393h-3.262c-2.082,0-3.379.786-3.379,2.554a1.908,1.908,0,0,0,2.043,1.926" transform="translate(-41.43 -5.776)"/><path d="M1738.04,870.447v3.182a7.492,7.492,0,0,1,6.13-3.5c3.536,0,6.09,2,6.09,5.972V890.25h-4.872V877.558c0-2.357-1.179-3.26-2.829-3.26-2.357,0-4.519,2.829-4.519,8.054v7.9h-4.871v-19.8Z" transform="translate(-45.484 -5.776)"/><path d="M1758.558,875.633c.629-3.261,3.5-5.5,7.544-5.5,4.715,0,8.329,1.964,8.329,8.289v11.827h-4.007l-.511-2.515a7.382,7.382,0,0,1-6.091,2.829,5.626,5.626,0,0,1-6.01-6.011c0-3.929,3.457-6.483,8.447-6.483h3.3V877.2c0-2.2-1.65-2.908-3.458-2.908a3.238,3.238,0,0,0-3.418,2.279Zm6.4,10.766c2.24,0,4.6-1.533,4.6-4.086v-.393H1766.3c-2.083,0-3.379.786-3.379,2.554a1.907,1.907,0,0,0,2.042,1.926" transform="translate(-49.441 -5.776)"/><path d="M1790.04,869.923a8.085,8.085,0,0,1,3.654.864l3.733-1.964,1.925,3.222-2.829,1.414a6.331,6.331,0,0,1,.786,3.144c0,4.165-3.261,6.6-7.269,6.6a9.587,9.587,0,0,1-2.868-.432,1.727,1.727,0,0,0-.942,1.492c0,.943.667,1.453,1.846,1.453h4.047c4.164,0,6.955,2,6.955,5.816,0,4.871-4.6,6.836-9,6.836-5.068,0-8.958-2.2-8.958-6.522a5.236,5.236,0,0,1,1.611-3.929,4.9,4.9,0,0,1,1.414-7.229,6.329,6.329,0,0,1-1.375-4.086c0-4.125,3.261-6.678,7.269-6.678m-1.689,19.881a13.854,13.854,0,0,1-2.278-.158,3.162,3.162,0,0,0-.433,1.807c0,1.885,1.886,2.829,4.44,2.829,2.318,0,4.126-.668,4.126-2.436,0-1.65-1.336-2.042-3.183-2.042Zm1.689-10.531a2.568,2.568,0,0,0,2.711-2.672,2.711,2.711,0,1,0-5.421,0,2.567,2.567,0,0,0,2.71,2.672" transform="translate(-53.183 -5.565)"/><path d="M1822.813,881.92h-13.634a4.543,4.543,0,0,0,4.676,4.479c2.239,0,3.614-1.022,4.792-3.065l3.93,1.454c-1.533,3.5-4.2,5.775-9,5.775-6.8,0-9.508-5.539-9.508-10.216s2.711-10.214,9.508-10.214c6.6,0,9.234,5.461,9.234,9.783Zm-13.516-3.851h8.526c-.433-1.965-1.65-3.771-4.244-3.771a4.375,4.375,0,0,0-4.282,3.771" transform="translate(-56.868 -5.776)"/><path d="M1830.971,890.249v-19.8h4.871v3.221a6.905,6.905,0,0,1,5.855-3.535,8.057,8.057,0,0,1,2.4.393l-.9,4.518a3.769,3.769,0,0,0-2.042-.55c-2.829,0-5.305,2.318-5.305,8.722v7.034Z" transform="translate(-61.188 -5.776)"/></g></svg>