<?xml version="1.0" encoding="utf-8"?>
<!-- Generator: Adobe Illustrator 24.1.2, SVG Export Plug-In . SVG Version: 6.00 Build 0)  -->
<svg version="1.1" id="Camada_1" xmlns="http://www.w3.org/2000/svg" xmlns:xlink="http://www.w3.org/1999/xlink" x="0px" y="0px"
	 viewBox="0 0 49 49.2" style="enable-background:new 0 0 49 49.2;" xml:space="preserve">
<style type="text/css">
	.st0{fill:#00A19C;}
</style>
<path class="st0" d="M34.8,3c0.4,0.2,0.9,0.4,1.3,0.7c-0.5-0.3-1-0.5-1.5-0.8c0,0-0.1,0-0.1,0c-0.9-0.4-1.8-0.8-2.7-1
	c-7.3-2.3-15-1-21,3.2c-3.4,2.4-6.2,5.7-8,9.5c-5.6,12-0.4,26.3,11.6,31.9c8.1,3.8,17.1,2.6,23.9-2.1c3.4-2.4,6.2-5.7,8-9.5
	C51.9,22.9,46.7,8.6,34.8,3z M43.1,21.8c0,0.1,0,0.3,0,0.4c0,0.3-0.1,0.8-0.1,0.8l-0.3,1.4C40.4,33.5,31.2,39,22.1,36.7
	c-1-0.3-2-0.6-3-1.1c-8.5-3.9-12.1-14-8.2-22.5c0.8-1.7,1.9-3.3,3.2-4.7l1.3-1.2c0.4-0.3,0.7-0.6,1.1-0.9l0,0
	c0.4-0.3,0.8-0.5,1.2-0.7l0,0c0.1,0,0.2-0.1,0.3-0.1c0.2-0.1,0.6-0.3,1-0.5c0.7-0.3,1.3-0.6,2-0.8c0.6-0.2,1.4-0.4,2.1-0.5
	c0.1,0,0.1,0,0.2,0c-0.2,0.1-0.3,0.2-0.5,0.3l0,0c0,0,0,0-0.1,0.1c0,0-0.1,0-0.1,0.1c-5.5,3.9-6.8,11.4-3,16.9
	c3.9,5.5,11.4,6.8,16.9,3c3.4-2.4,5.3-6.3,5.2-10.5c0,0,0,0,0,0.1s0,0,0,0.1c0.4,1.1,0.7,1.8,0.8,2.4c0.2,0.8,0.3,1.5,0.4,2.3
	c0,0.3,0,0.6,0.1,0.9l0,1.1c0,0.2,0,0.3,0,0.5c0,0.2,0,0.4,0,0.6L43.1,21.8z M38.8,10.6c1.5,4.2,0.1,8.9-3.6,11.4
	c-2.9,2-6.6,2.4-9.8,0.9c-4.9-2.3-7.1-8.2-4.8-13.1c0.6-1.4,1.6-2.6,2.7-3.5c0,0,0,0,0,0c0.2-0.1,0.3-0.3,0.5-0.4l0,0
	c0.3-0.2,0.7-0.4,1-0.6c0,0,0.1,0,0.1-0.1c0.2-0.1,0.3-0.2,0.5-0.2c0,0,0,0,0.1,0c0.8-0.3,1.5-0.6,2.4-0.7c0.5-0.1,1-0.1,1.5-0.1
	c1.4,0,2.8,0.3,4.1,0.9c0,0-0.1,0-0.1,0c-0.3-0.2-0.7-0.3-1-0.4c0.1,0,0.1,0,0.2,0.1c0.2,0.1,0.5,0.2,0.7,0.3c0,0,0.1,0,0.1,0.1
	c0.1,0,0.1,0.1,0.2,0.1c0,0,0,0,0,0c0,0,0,0,0,0c0.1,0,0.2,0.1,0.2,0.1c0.3,0.1,0.6,0.3,0.8,0.5C36.7,6.8,38.1,8.6,38.8,10.6z
	 M46.2,25.5c-0.2,6.8-3.7,13.1-9.2,16.9c-6.3,4.5-14.6,5.2-21.6,1.9C4.5,39.3-0.2,26.4,4.9,15.6C6.5,12.1,9,9.2,12.1,7l0,0
	c0.2-0.2,0.4-0.3,0.7-0.5c-0.2,0.2-0.4,0.4-0.5,0.5l0,0l0,0c-1.4,1.5-2.6,3.2-3.4,5.1c-4.5,9.6-0.3,21.1,9.3,25.6
	c9.6,4.5,21.1,0.3,25.6-9.3c0.5-1.2,1-2.4,1.3-3.6l0,0c0,0,0-0.1,0-0.2c0.1-0.2,0.1-0.5,0.1-0.7c0.1-0.5,0.2-1,0.2-1.3
	c0-0.1,0-0.3,0-0.4c0.1-0.6,0.1-1.2,0.1-1.9c0-0.1,0-0.2,0-0.2l0-0.5c0,0,0-0.1,0-0.1l0-0.4l0-0.1c0,0,0,0,0,0
	C46,21.2,46.3,23.3,46.2,25.5z"/>
</svg>
